<svg xmlns="http://www.w3.org/2000/svg" xmlns:xlink="http://www.w3.org/1999/xlink" width="500" zoomAndPan="magnify" viewBox="0 0 375 374.999991" height="500" preserveAspectRatio="xMidYMid meet" version="1.0"><defs><g/></defs><g fill="#000000" fill-opacity="1"><g transform="translate(24.445507, 213.344324)"><g><path d="M 49.4375 -33.15625 C 52.132812 -32.757812 54.410156 -31.863281 56.265625 -30.46875 C 58.117188 -29.082031 59.726562 -27.066406 61.09375 -24.421875 L 71 -5.5 L 77.96875 -5.5 L 77.96875 0 L 55.625 0 L 44.796875 -20.515625 C 42.710938 -24.753906 40.929688 -27.457031 39.453125 -28.625 C 37.984375 -29.800781 35.945312 -30.390625 33.34375 -30.390625 L 30.5625 -30.390625 L 30.5625 -5.5 L 39.296875 -5.5 L 39.296875 0 L 4.359375 0 L 4.359375 -5.5 L 13.046875 -5.5 L 13.046875 -62.40625 L 4.359375 -62.40625 L 4.359375 -67.90625 L 43.125 -67.90625 C 51.007812 -67.90625 57.09375 -66.320312 61.375 -63.15625 C 65.664062 -59.988281 67.8125 -55.492188 67.8125 -49.671875 C 67.8125 -44.941406 66.285156 -41.203125 63.234375 -38.453125 C 60.191406 -35.710938 55.59375 -33.945312 49.4375 -33.15625 Z M 30.5625 -35.84375 L 36.53125 -35.84375 C 40.769531 -35.84375 44.035156 -36.992188 46.328125 -39.296875 C 48.617188 -41.597656 49.765625 -44.890625 49.765625 -49.171875 C 49.765625 -53.441406 48.617188 -56.710938 46.328125 -58.984375 C 44.035156 -61.265625 40.769531 -62.40625 36.53125 -62.40625 L 30.5625 -62.40625 Z M 30.5625 -35.84375 "/></g></g></g><g fill="#000000" fill-opacity="1"><g transform="translate(101.857681, 213.344324)"><g><path d="M 31.109375 -3.828125 C 34.503906 -3.828125 36.890625 -5.28125 38.265625 -8.1875 C 39.648438 -11.09375 40.34375 -16.429688 40.34375 -24.203125 C 40.34375 -31.960938 39.660156 -37.289062 38.296875 -40.1875 C 36.929688 -43.082031 34.535156 -44.53125 31.109375 -44.53125 C 27.679688 -44.53125 25.269531 -43.066406 23.875 -40.140625 C 22.476562 -37.210938 21.78125 -31.898438 21.78125 -24.203125 C 21.78125 -16.492188 22.476562 -11.171875 23.875 -8.234375 C 25.269531 -5.296875 27.679688 -3.828125 31.109375 -3.828125 Z M 31.109375 1.3125 C 22.585938 1.3125 15.910156 -0.953125 11.078125 -5.484375 C 6.242188 -10.015625 3.828125 -16.253906 3.828125 -24.203125 C 3.828125 -32.171875 6.242188 -38.40625 11.078125 -42.90625 C 15.910156 -47.414062 22.585938 -49.671875 31.109375 -49.671875 C 39.660156 -49.671875 46.347656 -47.414062 51.171875 -42.90625 C 55.992188 -38.40625 58.40625 -32.171875 58.40625 -24.203125 C 58.40625 -16.253906 55.984375 -10.015625 51.140625 -5.484375 C 46.304688 -0.953125 39.628906 1.3125 31.109375 1.3125 Z M 31.109375 1.3125 "/></g></g></g><g fill="#000000" fill-opacity="1"><g transform="translate(163.987546, 213.344324)"><g><path d="M 31.109375 -3.828125 C 34.503906 -3.828125 36.890625 -5.28125 38.265625 -8.1875 C 39.648438 -11.09375 40.34375 -16.429688 40.34375 -24.203125 C 40.34375 -31.960938 39.660156 -37.289062 38.296875 -40.1875 C 36.929688 -43.082031 34.535156 -44.53125 31.109375 -44.53125 C 27.679688 -44.53125 25.269531 -43.066406 23.875 -40.140625 C 22.476562 -37.210938 21.78125 -31.898438 21.78125 -24.203125 C 21.78125 -16.492188 22.476562 -11.171875 23.875 -8.234375 C 25.269531 -5.296875 27.679688 -3.828125 31.109375 -3.828125 Z M 31.109375 1.3125 C 22.585938 1.3125 15.910156 -0.953125 11.078125 -5.484375 C 6.242188 -10.015625 3.828125 -16.253906 3.828125 -24.203125 C 3.828125 -32.171875 6.242188 -38.40625 11.078125 -42.90625 C 15.910156 -47.414062 22.585938 -49.671875 31.109375 -49.671875 C 39.660156 -49.671875 46.347656 -47.414062 51.171875 -42.90625 C 55.992188 -38.40625 58.40625 -32.171875 58.40625 -24.203125 C 58.40625 -16.253906 55.984375 -10.015625 51.140625 -5.484375 C 46.304688 -0.953125 39.628906 1.3125 31.109375 1.3125 Z M 31.109375 1.3125 "/></g></g></g><g fill="#000000" fill-opacity="1"><g transform="translate(226.117411, 213.344324)"><g><path d="M 52.53125 -15.09375 C 51.382812 -9.582031 49.03125 -5.46875 45.46875 -2.75 C 41.90625 -0.0390625 37.0625 1.3125 30.9375 1.3125 C 22.320312 1.3125 15.648438 -0.910156 10.921875 -5.359375 C 6.191406 -9.816406 3.828125 -16.097656 3.828125 -24.203125 C 3.828125 -32.203125 6.160156 -38.445312 10.828125 -42.9375 C 15.492188 -47.425781 21.984375 -49.671875 30.296875 -49.671875 C 33.660156 -49.671875 37.054688 -49.351562 40.484375 -48.71875 C 43.910156 -48.082031 47.394531 -47.125 50.9375 -45.84375 L 50.9375 -32.4375 L 45.84375 -32.4375 C 45.363281 -36.53125 44.164062 -39.566406 42.25 -41.546875 C 40.34375 -43.535156 37.660156 -44.53125 34.203125 -44.53125 C 29.710938 -44.53125 26.519531 -43.015625 24.625 -39.984375 C 22.726562 -36.953125 21.78125 -31.691406 21.78125 -24.203125 C 21.78125 -16.890625 22.707031 -11.664062 24.5625 -8.53125 C 26.414062 -5.394531 29.429688 -3.828125 33.609375 -3.828125 C 36.859375 -3.828125 39.457031 -4.796875 41.40625 -6.734375 C 43.363281 -8.671875 44.554688 -11.457031 44.984375 -15.09375 Z M 52.53125 -15.09375 "/></g></g></g><g fill="#000000" fill-opacity="1"><g transform="translate(282.834791, 213.344324)"><g><path d="M 3.1875 0 L 3.1875 -5.5 L 10.046875 -5.5 L 10.046875 -65.3125 L 2.859375 -65.3125 L 2.859375 -70.78125 L 26.15625 -70.78125 L 26.15625 -41.53125 C 28.09375 -44.40625 30.304688 -46.476562 32.796875 -47.75 C 35.285156 -49.03125 38.425781 -49.671875 42.21875 -49.671875 C 47.644531 -49.671875 51.742188 -48.070312 54.515625 -44.875 C 57.285156 -41.675781 58.671875 -36.96875 58.671875 -30.75 L 58.671875 -5.5 L 65.59375 -5.5 L 65.59375 0 L 36.703125 0 L 36.703125 -5.5 L 42.578125 -5.5 L 42.578125 -31.203125 C 42.578125 -35.296875 42.050781 -38.140625 41 -39.734375 C 39.957031 -41.328125 38.148438 -42.125 35.578125 -42.125 C 32.328125 -42.125 29.941406 -40.929688 28.421875 -38.546875 C 26.910156 -36.171875 26.15625 -32.390625 26.15625 -27.203125 L 26.15625 -5.5 L 32.0625 -5.5 L 32.0625 0 Z M 3.1875 0 "/></g></g></g></svg>